<svg width="1920" height="960" viewBox="0 0 1920 960" fill="none" xmlns="http://www.w3.org/2000/svg">
<rect width="1920" height="960" fill="black"/>
<rect width="1920" height="960" fill="#FAF9FA"/>
<path d="M444.7 451.8C448.167 451.8 450.917 452.85 452.95 454.95C455.017 457.05 456.05 459.967 456.05 463.7V480H447.55V464.85C447.55 463.05 447.067 461.667 446.1 460.7C445.167 459.7 443.867 459.2 442.2 459.2C440.533 459.2 439.217 459.7 438.25 460.7C437.317 461.667 436.85 463.05 436.85 464.85V480H428.35V464.85C428.35 463.05 427.867 461.667 426.9 460.7C425.967 459.7 424.667 459.2 423 459.2C421.333 459.2 420.017 459.7 419.05 460.7C418.117 461.667 417.65 463.05 417.65 464.85V480H409.1V452.1H417.65V455.6C418.517 454.433 419.65 453.517 421.05 452.85C422.45 452.15 424.033 451.8 425.8 451.8C427.9 451.8 429.767 452.25 431.4 453.15C433.067 454.05 434.367 455.333 435.3 457C436.267 455.467 437.583 454.217 439.25 453.25C440.917 452.283 442.733 451.8 444.7 451.8ZM477.23 480.4C474.496 480.4 472.03 479.817 469.83 478.65C467.663 477.483 465.946 475.817 464.68 473.65C463.446 471.483 462.83 468.95 462.83 466.05C462.83 463.183 463.463 460.667 464.73 458.5C465.996 456.3 467.73 454.617 469.93 453.45C472.13 452.283 474.596 451.7 477.33 451.7C480.063 451.7 482.53 452.283 484.73 453.45C486.93 454.617 488.663 456.3 489.93 458.5C491.196 460.667 491.83 463.183 491.83 466.05C491.83 468.917 491.18 471.45 489.88 473.65C488.613 475.817 486.863 477.483 484.63 478.65C482.43 479.817 479.963 480.4 477.23 480.4ZM477.23 473C478.863 473 480.246 472.4 481.38 471.2C482.546 470 483.13 468.283 483.13 466.05C483.13 463.817 482.563 462.1 481.43 460.9C480.33 459.7 478.963 459.1 477.33 459.1C475.663 459.1 474.28 459.7 473.18 460.9C472.08 462.067 471.53 463.783 471.53 466.05C471.53 468.283 472.063 470 473.13 471.2C474.23 472.4 475.596 473 477.23 473ZM515.866 451.8C519.132 451.8 521.732 452.867 523.666 455C525.632 457.1 526.616 460 526.616 463.7V480H518.116V464.85C518.116 462.983 517.632 461.533 516.666 460.5C515.699 459.467 514.399 458.95 512.766 458.95C511.132 458.95 509.832 459.467 508.866 460.5C507.899 461.533 507.416 462.983 507.416 464.85V480H498.866V452.1H507.416V455.8C508.282 454.567 509.449 453.6 510.916 452.9C512.382 452.167 514.032 451.8 515.866 451.8ZM561.357 465.6C561.357 466.4 561.307 467.233 561.207 468.1H541.857C541.99 469.833 542.54 471.167 543.507 472.1C544.507 473 545.724 473.45 547.157 473.45C549.29 473.45 550.774 472.55 551.607 470.75H560.707C560.24 472.583 559.39 474.233 558.157 475.7C556.957 477.167 555.44 478.317 553.607 479.15C551.774 479.983 549.724 480.4 547.457 480.4C544.724 480.4 542.29 479.817 540.157 478.65C538.024 477.483 536.357 475.817 535.157 473.65C533.957 471.483 533.357 468.95 533.357 466.05C533.357 463.15 533.94 460.617 535.107 458.45C536.307 456.283 537.974 454.617 540.107 453.45C542.24 452.283 544.69 451.7 547.457 451.7C550.157 451.7 552.557 452.267 554.657 453.4C556.757 454.533 558.39 456.15 559.557 458.25C560.757 460.35 561.357 462.8 561.357 465.6ZM552.607 463.35C552.607 461.883 552.107 460.717 551.107 459.85C550.107 458.983 548.857 458.55 547.357 458.55C545.924 458.55 544.707 458.967 543.707 459.8C542.74 460.633 542.14 461.817 541.907 463.35H552.607ZM596.868 452.1L579.368 493.25H570.168L576.568 479.05L565.218 452.1H574.768L581.218 469.55L587.618 452.1H596.868ZM611.009 456.05C611.809 454.75 612.959 453.7 614.459 452.9C615.959 452.1 617.676 451.7 619.609 451.7C621.909 451.7 623.993 452.283 625.859 453.45C627.726 454.617 629.193 456.283 630.259 458.45C631.359 460.617 631.909 463.133 631.909 466C631.909 468.867 631.359 471.4 630.259 473.6C629.193 475.767 627.726 477.45 625.859 478.65C623.993 479.817 621.909 480.4 619.609 480.4C617.643 480.4 615.926 480.017 614.459 479.25C612.993 478.45 611.843 477.4 611.009 476.1V480H602.459V443H611.009V456.05ZM623.209 466C623.209 463.867 622.609 462.2 621.409 461C620.243 459.767 618.793 459.15 617.059 459.15C615.359 459.15 613.909 459.767 612.709 461C611.543 462.233 610.959 463.917 610.959 466.05C610.959 468.183 611.543 469.867 612.709 471.1C613.909 472.333 615.359 472.95 617.059 472.95C618.759 472.95 620.209 472.333 621.409 471.1C622.609 469.833 623.209 468.133 623.209 466ZM665.195 465.6C665.195 466.4 665.145 467.233 665.045 468.1H645.695C645.828 469.833 646.378 471.167 647.345 472.1C648.345 473 649.562 473.45 650.995 473.45C653.128 473.45 654.612 472.55 655.445 470.75H664.545C664.078 472.583 663.228 474.233 661.995 475.7C660.795 477.167 659.278 478.317 657.445 479.15C655.612 479.983 653.562 480.4 651.295 480.4C648.562 480.4 646.128 479.817 643.995 478.65C641.862 477.483 640.195 475.817 638.995 473.65C637.795 471.483 637.195 468.95 637.195 466.05C637.195 463.15 637.778 460.617 638.945 458.45C640.145 456.283 641.812 454.617 643.945 453.45C646.078 452.283 648.528 451.7 651.295 451.7C653.995 451.7 656.395 452.267 658.495 453.4C660.595 454.533 662.228 456.15 663.395 458.25C664.595 460.35 665.195 462.8 665.195 465.6ZM656.445 463.35C656.445 461.883 655.945 460.717 654.945 459.85C653.945 458.983 652.695 458.55 651.195 458.55C649.762 458.55 648.545 458.967 647.545 459.8C646.578 460.633 645.978 461.817 645.745 463.35H656.445ZM670.505 466C670.505 463.133 671.039 460.617 672.105 458.45C673.205 456.283 674.689 454.617 676.555 453.45C678.422 452.283 680.505 451.7 682.805 451.7C684.772 451.7 686.489 452.1 687.955 452.9C689.455 453.7 690.605 454.75 691.405 456.05V452.1H699.955V480H691.405V476.05C690.572 477.35 689.405 478.4 687.905 479.2C686.439 480 684.722 480.4 682.755 480.4C680.489 480.4 678.422 479.817 676.555 478.65C674.689 477.45 673.205 475.767 672.105 473.6C671.039 471.4 670.505 468.867 670.505 466ZM691.405 466.05C691.405 463.917 690.805 462.233 689.605 461C688.439 459.767 687.005 459.15 685.305 459.15C683.605 459.15 682.155 459.767 680.955 461C679.789 462.2 679.205 463.867 679.205 466C679.205 468.133 679.789 469.833 680.955 471.1C682.155 472.333 683.605 472.95 685.305 472.95C687.005 472.95 688.439 472.333 689.605 471.1C690.805 469.867 691.405 468.183 691.405 466.05ZM725.641 451.8C728.908 451.8 731.508 452.867 733.441 455C735.408 457.1 736.391 460 736.391 463.7V480H727.891V464.85C727.891 462.983 727.408 461.533 726.441 460.5C725.474 459.467 724.174 458.95 722.541 458.95C720.908 458.95 719.608 459.467 718.641 460.5C717.674 461.533 717.191 462.983 717.191 464.85V480H708.641V452.1H717.191V455.8C718.058 454.567 719.224 453.6 720.691 452.9C722.158 452.167 723.808 451.8 725.641 451.8Z" fill="black"/>
<path d="M452.95 454.95L452.232 455.646L452.237 455.651L452.95 454.95ZM456.05 480V481H457.05V480H456.05ZM447.55 480H446.55V481H447.55V480ZM446.1 460.7L445.369 461.382L445.381 461.395L445.393 461.407L446.1 460.7ZM438.25 460.7L437.531 460.005L437.531 460.005L438.25 460.7ZM436.85 480V481H437.85V480H436.85ZM428.35 480H427.35V481H428.35V480ZM426.9 460.7L426.169 461.382L426.181 461.395L426.193 461.407L426.9 460.7ZM419.05 460.7L418.331 460.005L418.331 460.005L419.05 460.7ZM417.65 480V481H418.65V480H417.65ZM409.1 480H408.1V481H409.1V480ZM409.1 452.1V451.1H408.1V452.1H409.1ZM417.65 452.1H418.65V451.1H417.65V452.1ZM417.65 455.6H416.65V458.623L418.453 456.196L417.65 455.6ZM421.05 452.85L421.48 453.753L421.489 453.749L421.497 453.744L421.05 452.85ZM431.4 453.15L430.917 454.026L430.925 454.03L431.4 453.15ZM435.3 457L434.427 457.489L435.249 458.956L436.146 457.533L435.3 457ZM439.25 453.25L439.752 454.115L439.25 453.25ZM444.7 452.8C447.95 452.8 450.421 453.776 452.232 455.646L453.668 454.254C451.412 451.924 448.383 450.8 444.7 450.8V452.8ZM452.237 455.651C454.074 457.518 455.05 460.156 455.05 463.7H457.05C457.05 459.778 455.959 456.582 453.663 454.249L452.237 455.651ZM455.05 463.7V480H457.05V463.7H455.05ZM456.05 479H447.55V481H456.05V479ZM448.55 480V464.85H446.55V480H448.55ZM448.55 464.85C448.55 462.872 448.015 461.201 446.807 459.993L445.393 461.407C446.118 462.132 446.55 463.228 446.55 464.85H448.55ZM446.831 460.018C445.668 458.772 444.079 458.2 442.2 458.2V460.2C443.655 460.2 444.665 460.628 445.369 461.382L446.831 460.018ZM442.2 458.2C440.32 458.2 438.723 458.772 437.531 460.005L438.969 461.395C439.71 460.628 440.747 460.2 442.2 460.2V458.2ZM437.531 460.005C436.363 461.215 435.85 462.881 435.85 464.85H437.85C437.85 463.219 438.27 462.119 438.969 461.395L437.531 460.005ZM435.85 464.85V480H437.85V464.85H435.85ZM436.85 479H428.35V481H436.85V479ZM429.35 480V464.85H427.35V480H429.35ZM429.35 464.85C429.35 462.872 428.815 461.201 427.607 459.993L426.193 461.407C426.918 462.132 427.35 463.228 427.35 464.85H429.35ZM427.631 460.018C426.468 458.772 424.879 458.2 423 458.2V460.2C424.455 460.2 425.465 460.628 426.169 461.382L427.631 460.018ZM423 458.2C421.12 458.2 419.523 458.772 418.331 460.005L419.769 461.395C420.51 460.628 421.547 460.2 423 460.2V458.2ZM418.331 460.005C417.163 461.215 416.65 462.881 416.65 464.85H418.65C418.65 463.219 419.07 462.119 419.769 461.395L418.331 460.005ZM416.65 464.85V480H418.65V464.85H416.65ZM417.65 479H409.1V481H417.65V479ZM410.1 480V452.1H408.1V480H410.1ZM409.1 453.1H417.65V451.1H409.1V453.1ZM416.65 452.1V455.6H418.65V452.1H416.65ZM418.453 456.196C419.216 455.169 420.217 454.354 421.48 453.753L420.62 451.947C419.083 452.679 417.818 453.697 416.847 455.004L418.453 456.196ZM421.497 453.744C422.741 453.122 424.168 452.8 425.8 452.8V450.8C423.898 450.8 422.159 451.178 420.603 451.956L421.497 453.744ZM425.8 452.8C427.753 452.8 429.45 453.217 430.917 454.026L431.883 452.274C430.084 451.283 428.047 450.8 425.8 450.8V452.8ZM430.925 454.03C432.423 454.839 433.586 455.986 434.427 457.489L436.173 456.511C435.147 454.681 433.71 453.261 431.875 452.27L430.925 454.03ZM436.146 457.533C437.021 456.145 438.216 455.006 439.752 454.115L438.748 452.385C436.951 453.428 435.512 454.788 434.454 456.467L436.146 457.533ZM439.752 454.115C441.263 453.239 442.906 452.8 444.7 452.8V450.8C442.561 450.8 440.571 451.328 438.748 452.385L439.752 454.115ZM469.83 478.65L469.356 479.53L469.361 479.533L469.83 478.65ZM464.68 473.65L463.811 474.145L463.816 474.155L464.68 473.65ZM464.73 458.5L465.593 459.005L465.596 458.999L464.73 458.5ZM469.93 453.45L470.398 454.333L470.398 454.333L469.93 453.45ZM484.73 453.45L484.261 454.333L484.261 454.333L484.73 453.45ZM489.93 458.5L489.063 458.999L489.066 459.005L489.93 458.5ZM489.88 473.65L489.019 473.141L489.016 473.145L489.88 473.65ZM484.63 478.65L484.167 477.764L484.161 477.767L484.63 478.65ZM481.38 471.2L480.663 470.503L480.658 470.508L480.653 470.513L481.38 471.2ZM481.43 460.9L480.693 461.576L480.698 461.581L480.703 461.587L481.43 460.9ZM473.18 460.9L473.907 461.586L473.917 461.576L473.18 460.9ZM473.13 471.2L472.382 471.864L472.387 471.87L472.393 471.876L473.13 471.2ZM477.23 479.4C474.643 479.4 472.34 478.849 470.298 477.767L469.361 479.533C471.719 480.784 474.349 481.4 477.23 481.4V479.4ZM470.304 477.77C468.302 476.692 466.719 475.157 465.543 473.145L463.816 474.155C465.174 476.477 467.024 478.275 469.356 479.53L470.304 477.77ZM465.549 473.155C464.414 471.162 463.83 468.805 463.83 466.05H461.83C461.83 469.095 462.478 471.804 463.811 474.145L465.549 473.155ZM463.83 466.05C463.83 463.335 464.428 460.998 465.593 459.005L463.866 457.995C462.498 460.336 461.83 463.032 461.83 466.05H463.83ZM465.596 458.999C466.771 456.959 468.368 455.41 470.398 454.333L469.461 452.567C467.092 453.823 465.222 455.641 463.863 458.001L465.596 458.999ZM470.398 454.333C472.44 453.251 474.743 452.7 477.33 452.7V450.7C474.449 450.7 471.819 451.316 469.461 452.567L470.398 454.333ZM477.33 452.7C479.916 452.7 482.219 453.251 484.261 454.333L485.198 452.567C482.84 451.316 480.21 450.7 477.33 450.7V452.7ZM484.261 454.333C486.292 455.41 487.888 456.959 489.063 458.999L490.796 458.001C489.438 455.641 487.568 453.823 485.198 452.567L484.261 454.333ZM489.066 459.005C490.231 460.998 490.83 463.335 490.83 466.05H492.83C492.83 463.032 492.161 460.336 490.793 457.995L489.066 459.005ZM490.83 466.05C490.83 468.76 490.217 471.113 489.019 473.141L490.741 474.159C492.142 471.787 492.83 469.073 492.83 466.05H490.83ZM489.016 473.145C487.845 475.149 486.234 476.684 484.167 477.764L485.093 479.536C487.492 478.283 489.381 476.484 490.743 474.155L489.016 473.145ZM484.161 477.767C482.119 478.849 479.816 479.4 477.23 479.4V481.4C480.11 481.4 482.74 480.784 485.098 479.533L484.161 477.767ZM477.23 474C479.141 474 480.787 473.284 482.107 471.887L480.653 470.513C479.706 471.516 478.585 472 477.23 472V474ZM482.097 471.897C483.499 470.455 484.13 468.454 484.13 466.05H482.13C482.13 468.113 481.594 469.545 480.663 470.503L482.097 471.897ZM484.13 466.05C484.13 463.653 483.52 461.656 482.157 460.213L480.703 461.587C481.606 462.544 482.13 463.98 482.13 466.05H484.13ZM482.167 460.224C480.877 458.817 479.242 458.1 477.33 458.1V460.1C478.684 460.1 479.783 460.583 480.693 461.576L482.167 460.224ZM477.33 458.1C475.39 458.1 473.737 458.812 472.443 460.224L473.917 461.576C474.822 460.588 475.936 460.1 477.33 460.1V458.1ZM472.452 460.214C471.116 461.631 470.53 463.634 470.53 466.05H472.53C472.53 463.933 473.043 462.502 473.907 461.586L472.452 460.214ZM470.53 466.05C470.53 468.432 471.099 470.421 472.382 471.864L473.877 470.536C473.027 469.579 472.53 468.134 472.53 466.05H470.53ZM472.393 471.876C473.683 473.283 475.317 474 477.23 474V472C475.876 472 474.777 471.517 473.867 470.524L472.393 471.876ZM523.666 455L522.925 455.672L522.93 455.678L522.936 455.684L523.666 455ZM526.616 480V481H527.616V480H526.616ZM518.116 480H517.116V481H518.116V480ZM516.666 460.5L515.935 461.183L515.935 461.183L516.666 460.5ZM508.866 460.5L509.596 461.183L509.596 461.183L508.866 460.5ZM507.416 480V481H508.416V480H507.416ZM498.866 480H497.866V481H498.866V480ZM498.866 452.1V451.1H497.866V452.1H498.866ZM507.416 452.1H508.416V451.1H507.416V452.1ZM507.416 455.8H506.416V458.962L508.234 456.375L507.416 455.8ZM510.916 452.9L511.346 453.802L511.355 453.799L511.363 453.794L510.916 452.9ZM515.866 452.8C518.892 452.8 521.207 453.777 522.925 455.672L524.407 454.328C522.257 451.957 519.373 450.8 515.866 450.8V452.8ZM522.936 455.684C524.683 457.55 525.616 460.179 525.616 463.7H527.616C527.616 459.821 526.581 456.65 524.396 454.316L522.936 455.684ZM525.616 463.7V480H527.616V463.7H525.616ZM526.616 479H518.116V481H526.616V479ZM519.116 480V464.85H517.116V480H519.116ZM519.116 464.85C519.116 462.813 518.585 461.088 517.396 459.817L515.935 461.183C516.679 461.978 517.116 463.154 517.116 464.85H519.116ZM517.396 459.817C516.21 458.55 514.629 457.95 512.766 457.95V459.95C514.169 459.95 515.188 460.384 515.935 461.183L517.396 459.817ZM512.766 457.95C510.902 457.95 509.321 458.55 508.135 459.817L509.596 461.183C510.344 460.384 511.362 459.95 512.766 459.95V457.95ZM508.135 459.817C506.946 461.088 506.416 462.813 506.416 464.85H508.416C508.416 463.154 508.852 461.978 509.596 461.183L508.135 459.817ZM506.416 464.85V480H508.416V464.85H506.416ZM507.416 479H498.866V481H507.416V479ZM499.866 480V452.1H497.866V480H499.866ZM498.866 453.1H507.416V451.1H498.866V453.1ZM506.416 452.1V455.8H508.416V452.1H506.416ZM508.234 456.375C508.994 455.293 510.022 454.434 511.346 453.802L510.485 451.998C508.876 452.766 507.571 453.84 506.597 455.225L508.234 456.375ZM511.363 453.794C512.675 453.138 514.169 452.8 515.866 452.8V450.8C513.896 450.8 512.09 451.195 510.468 452.006L511.363 453.794ZM561.207 468.1V469.1H562.098L562.2 468.215L561.207 468.1ZM541.857 468.1V467.1H540.777L540.86 468.177L541.857 468.1ZM543.507 472.1L542.812 472.819L542.825 472.832L542.838 472.843L543.507 472.1ZM551.607 470.75V469.75H550.968L550.7 470.33L551.607 470.75ZM560.707 470.75L561.676 470.997L561.993 469.75H560.707V470.75ZM558.157 475.7L557.392 475.056L557.383 475.067L558.157 475.7ZM553.607 479.15L554.021 480.06L553.607 479.15ZM540.157 478.65L539.677 479.527L539.677 479.527L540.157 478.65ZM535.157 473.65L536.032 473.165L536.032 473.165L535.157 473.65ZM535.107 458.45L534.232 457.965L534.227 457.976L535.107 458.45ZM540.107 453.45L540.587 454.327L540.587 454.327L540.107 453.45ZM554.657 453.4L554.182 454.28L554.182 454.28L554.657 453.4ZM559.557 458.25L558.683 458.736L558.689 458.746L559.557 458.25ZM552.607 463.35V464.35H553.607V463.35H552.607ZM551.107 459.85L551.762 459.094L551.762 459.094L551.107 459.85ZM543.707 459.8L543.067 459.032L543.06 459.037L543.054 459.043L543.707 459.8ZM541.907 463.35L540.918 463.2L540.743 464.35H541.907V463.35ZM560.357 465.6C560.357 466.358 560.31 467.153 560.214 467.985L562.2 468.215C562.304 467.313 562.357 466.442 562.357 465.6H560.357ZM561.207 467.1H541.857V469.1H561.207V467.1ZM540.86 468.177C541.006 470.081 541.623 471.671 542.812 472.819L544.202 471.381C543.458 470.662 542.974 469.586 542.854 468.023L540.86 468.177ZM542.838 472.843C544.034 473.92 545.494 474.45 547.157 474.45V472.45C545.953 472.45 544.98 472.08 544.176 471.357L542.838 472.843ZM547.157 474.45C548.365 474.45 549.458 474.194 550.388 473.63C551.323 473.063 552.027 472.224 552.514 471.17L550.7 470.33C550.354 471.076 549.899 471.587 549.351 471.92C548.798 472.256 548.083 472.45 547.157 472.45V474.45ZM551.607 471.75H560.707V469.75H551.607V471.75ZM559.738 470.503C559.309 472.189 558.529 473.703 557.392 475.056L558.922 476.344C560.251 474.763 561.172 472.978 561.676 470.997L559.738 470.503ZM557.383 475.067C556.286 476.407 554.896 477.466 553.193 478.24L554.021 480.06C555.985 479.168 557.628 477.926 558.931 476.333L557.383 475.067ZM553.193 478.24C551.505 479.007 549.599 479.4 547.457 479.4V481.4C549.848 481.4 552.042 480.96 554.021 480.06L553.193 478.24ZM547.457 479.4C544.87 479.4 542.606 478.849 540.637 477.773L539.677 479.527C541.975 480.784 544.577 481.4 547.457 481.4V479.4ZM540.637 477.773C538.673 476.699 537.142 475.17 536.032 473.165L534.282 474.134C535.572 476.464 537.374 478.268 539.677 479.527L540.637 477.773ZM536.032 473.165C534.927 471.171 534.357 468.81 534.357 466.05H532.357C532.357 469.09 532.987 471.796 534.282 474.134L536.032 473.165ZM534.357 466.05C534.357 463.286 534.912 460.921 535.988 458.924L534.227 457.976C532.969 460.312 532.357 463.014 532.357 466.05H534.357ZM535.982 458.934C537.092 456.93 538.623 455.401 540.587 454.327L539.627 452.573C537.324 453.832 535.522 455.636 534.232 457.965L535.982 458.934ZM540.587 454.327C542.554 453.252 544.835 452.7 547.457 452.7V450.7C544.546 450.7 541.927 451.315 539.627 452.573L540.587 454.327ZM547.457 452.7C550.013 452.7 552.246 453.235 554.182 454.28L555.132 452.52C552.868 451.298 550.301 450.7 547.457 450.7V452.7ZM554.182 454.28C556.113 455.322 557.608 456.801 558.683 458.736L560.431 457.764C559.172 455.499 557.401 453.745 555.132 452.52L554.182 454.28ZM558.689 458.746C559.79 460.673 560.357 462.946 560.357 465.6H562.357C562.357 462.654 561.724 460.027 560.425 457.754L558.689 458.746ZM553.607 463.35C553.607 461.629 553.006 460.173 551.762 459.094L550.452 460.606C551.208 461.26 551.607 462.138 551.607 463.35H553.607ZM551.762 459.094C550.556 458.049 549.063 457.55 547.357 457.55V459.55C548.651 459.55 549.658 459.918 550.452 460.606L551.762 459.094ZM547.357 457.55C545.715 457.55 544.265 458.033 543.067 459.032L544.347 460.568C545.149 459.9 546.132 459.55 547.357 459.55V457.55ZM543.054 459.043C541.87 460.063 541.18 461.483 540.918 463.2L542.896 463.5C543.101 462.15 543.611 461.203 544.36 460.557L543.054 459.043ZM541.907 464.35H552.607V462.35H541.907V464.35ZM596.868 452.1L597.788 452.491L598.38 451.1H596.868V452.1ZM579.368 493.25V494.25H580.029L580.288 493.641L579.368 493.25ZM570.168 493.25L569.256 492.839L568.62 494.25H570.168V493.25ZM576.568 479.05L577.479 479.461L577.658 479.064L577.489 478.662L576.568 479.05ZM565.218 452.1V451.1H563.711L564.296 452.488L565.218 452.1ZM574.768 452.1L575.706 451.753L575.464 451.1H574.768V452.1ZM581.218 469.55L580.28 469.897L581.221 472.444L582.156 469.894L581.218 469.55ZM587.618 452.1V451.1H586.919L586.679 451.756L587.618 452.1ZM595.947 451.709L578.447 492.859L580.288 493.641L597.788 452.491L595.947 451.709ZM579.368 492.25H570.168V494.25H579.368V492.25ZM571.079 493.661L577.479 479.461L575.656 478.639L569.256 492.839L571.079 493.661ZM577.489 478.662L566.139 451.712L564.296 452.488L575.646 479.438L577.489 478.662ZM565.218 453.1H574.768V451.1H565.218V453.1ZM573.83 452.447L580.28 469.897L582.156 469.203L575.706 451.753L573.83 452.447ZM582.156 469.894L588.556 452.444L586.679 451.756L580.279 469.206L582.156 469.894ZM587.618 453.1H596.868V451.1H587.618V453.1ZM611.009 456.05H610.009V459.583L611.861 456.574L611.009 456.05ZM614.459 452.9L613.989 452.018L613.989 452.018L614.459 452.9ZM625.859 453.45L625.329 454.298L625.329 454.298L625.859 453.45ZM630.259 458.45L629.362 458.892L629.368 458.903L630.259 458.45ZM630.259 473.6L629.365 473.153L629.362 473.158L630.259 473.6ZM625.859 478.65L626.389 479.498L626.4 479.491L625.859 478.65ZM614.459 479.25L613.981 480.128L613.988 480.132L613.996 480.136L614.459 479.25ZM611.009 476.1L611.851 475.56L610.009 472.687V476.1H611.009ZM611.009 480V481H612.009V480H611.009ZM602.459 480H601.459V481H602.459V480ZM602.459 443V442H601.459V443H602.459ZM611.009 443H612.009V442H611.009V443ZM621.409 461L620.683 461.687L620.692 461.697L620.702 461.707L621.409 461ZM612.709 461L611.993 460.303L611.983 460.313L612.709 461ZM612.709 471.1L611.983 471.787L611.993 471.797L612.709 471.1ZM621.409 471.1L622.126 471.797L622.135 471.788L621.409 471.1ZM611.861 456.574C612.558 455.442 613.568 454.509 614.93 453.782L613.989 452.018C612.35 452.891 611.061 454.058 610.158 455.526L611.861 456.574ZM614.93 453.782C616.266 453.07 617.817 452.7 619.609 452.7V450.7C617.535 450.7 615.652 451.13 613.989 452.018L614.93 453.782ZM619.609 452.7C621.731 452.7 623.629 453.235 625.329 454.298L626.389 452.602C624.356 451.331 622.088 450.7 619.609 450.7V452.7ZM625.329 454.298C627.023 455.357 628.369 456.875 629.362 458.892L631.157 458.008C630.016 455.691 628.429 453.877 626.389 452.602L625.329 454.298ZM629.368 458.903C630.385 460.906 630.909 463.262 630.909 466H632.909C632.909 463.004 632.334 460.327 631.151 457.997L629.368 458.903ZM630.909 466C630.909 468.737 630.385 471.113 629.365 473.153L631.154 474.047C632.334 471.687 632.909 468.996 632.909 466H630.909ZM629.362 473.158C628.368 475.177 627.019 476.716 625.319 477.809L626.4 479.491C628.433 478.184 630.017 476.357 631.157 474.042L629.362 473.158ZM625.329 477.802C623.629 478.865 621.731 479.4 619.609 479.4V481.4C622.088 481.4 624.356 480.769 626.389 479.498L625.329 477.802ZM619.609 479.4C617.774 479.4 616.222 479.043 614.923 478.364L613.996 480.136C615.63 480.99 617.512 481.4 619.609 481.4V479.4ZM614.938 478.372C613.607 477.646 612.587 476.707 611.851 475.56L610.167 476.64C611.099 478.093 612.379 479.254 613.981 480.128L614.938 478.372ZM610.009 476.1V480H612.009V476.1H610.009ZM611.009 479H602.459V481H611.009V479ZM603.459 480V443H601.459V480H603.459ZM602.459 444H611.009V442H602.459V444ZM610.009 443V456.05H612.009V443H610.009ZM624.209 466C624.209 463.673 623.549 461.726 622.116 460.293L620.702 461.707C621.669 462.674 622.209 464.06 622.209 466H624.209ZM622.136 460.313C620.776 458.875 619.061 458.15 617.059 458.15V460.15C618.524 460.15 619.71 460.658 620.683 461.687L622.136 460.313ZM617.059 458.15C615.086 458.15 613.378 458.878 611.993 460.303L613.426 461.697C614.44 460.655 615.633 460.15 617.059 460.15V458.15ZM611.983 460.313C610.599 461.776 609.959 463.73 609.959 466.05H611.959C611.959 464.104 612.487 462.69 613.436 461.687L611.983 460.313ZM609.959 466.05C609.959 468.37 610.599 470.324 611.983 471.787L613.436 470.413C612.487 469.41 611.959 467.996 611.959 466.05H609.959ZM611.993 471.797C613.378 473.222 615.086 473.95 617.059 473.95V471.95C615.633 471.95 614.44 471.445 613.426 470.403L611.993 471.797ZM617.059 473.95C619.033 473.95 620.74 473.222 622.126 471.797L620.693 470.403C619.678 471.445 618.486 471.95 617.059 471.95V473.95ZM622.135 471.788C623.549 470.296 624.209 468.329 624.209 466H622.209C622.209 467.938 621.67 469.371 620.683 470.412L622.135 471.788ZM665.045 468.1V469.1H665.936L666.038 468.215L665.045 468.1ZM645.695 468.1V467.1H644.615L644.698 468.177L645.695 468.1ZM647.345 472.1L646.65 472.819L646.663 472.832L646.676 472.843L647.345 472.1ZM655.445 470.75V469.75H654.806L654.537 470.33L655.445 470.75ZM664.545 470.75L665.514 470.997L665.831 469.75H664.545V470.75ZM661.995 475.7L661.229 475.056L661.221 475.067L661.995 475.7ZM657.445 479.15L657.859 480.06L657.445 479.15ZM643.995 478.65L643.515 479.527L643.515 479.527L643.995 478.65ZM638.995 473.65L639.87 473.165L639.87 473.165L638.995 473.65ZM638.945 458.45L638.07 457.965L638.064 457.976L638.945 458.45ZM643.945 453.45L644.425 454.327L644.425 454.327L643.945 453.45ZM658.495 453.4L658.02 454.28L658.02 454.28L658.495 453.4ZM663.395 458.25L662.521 458.736L662.527 458.746L663.395 458.25ZM656.445 463.35V464.35H657.445V463.35H656.445ZM654.945 459.85L655.6 459.094L655.6 459.094L654.945 459.85ZM647.545 459.8L646.905 459.032L646.898 459.037L646.892 459.043L647.545 459.8ZM645.745 463.35L644.756 463.2L644.581 464.35H645.745V463.35ZM664.195 465.6C664.195 466.358 664.148 467.153 664.052 467.985L666.038 468.215C666.142 467.313 666.195 466.442 666.195 465.6H664.195ZM665.045 467.1H645.695V469.1H665.045V467.1ZM644.698 468.177C644.844 470.081 645.461 471.671 646.65 472.819L648.04 471.381C647.296 470.662 646.812 469.586 646.692 468.023L644.698 468.177ZM646.676 472.843C647.872 473.92 649.332 474.45 650.995 474.45V472.45C649.791 472.45 648.818 472.08 648.014 471.357L646.676 472.843ZM650.995 474.45C652.203 474.45 653.296 474.194 654.226 473.63C655.161 473.063 655.865 472.224 656.352 471.17L654.537 470.33C654.192 471.076 653.737 471.587 653.189 471.92C652.636 472.256 651.921 472.45 650.995 472.45V474.45ZM655.445 471.75H664.545V469.75H655.445V471.75ZM663.576 470.503C663.147 472.189 662.367 473.703 661.23 475.056L662.76 476.344C664.089 474.763 665.01 472.978 665.514 470.997L663.576 470.503ZM661.221 475.067C660.124 476.407 658.734 477.466 657.031 478.24L657.859 480.06C659.823 479.168 661.466 477.926 662.769 476.333L661.221 475.067ZM657.031 478.24C655.343 479.007 653.437 479.4 651.295 479.4V481.4C653.686 481.4 655.88 480.96 657.859 480.06L657.031 478.24ZM651.295 479.4C648.708 479.4 646.443 478.849 644.475 477.773L643.515 479.527C645.813 480.784 648.415 481.4 651.295 481.4V479.4ZM644.475 477.773C642.511 476.699 640.98 475.17 639.87 473.165L638.12 474.134C639.41 476.464 641.212 478.268 643.515 479.527L644.475 477.773ZM639.87 473.165C638.765 471.171 638.195 468.81 638.195 466.05H636.195C636.195 469.09 636.825 471.796 638.12 474.134L639.87 473.165ZM638.195 466.05C638.195 463.286 638.75 460.921 639.825 458.924L638.064 457.976C636.806 460.312 636.195 463.014 636.195 466.05H638.195ZM639.82 458.934C640.93 456.93 642.461 455.401 644.425 454.327L643.465 452.573C641.162 453.832 639.36 455.636 638.07 457.965L639.82 458.934ZM644.425 454.327C646.392 453.252 648.673 452.7 651.295 452.7V450.7C648.384 450.7 645.765 451.315 643.465 452.573L644.425 454.327ZM651.295 452.7C653.851 452.7 656.084 453.235 658.02 454.28L658.97 452.52C656.706 451.298 654.139 450.7 651.295 450.7V452.7ZM658.02 454.28C659.951 455.322 661.446 456.801 662.521 458.736L664.269 457.764C663.01 455.499 661.239 453.745 658.97 452.52L658.02 454.28ZM662.527 458.746C663.628 460.673 664.195 462.946 664.195 465.6H666.195C666.195 462.654 665.562 460.027 664.263 457.754L662.527 458.746ZM657.445 463.35C657.445 461.629 656.844 460.173 655.6 459.094L654.29 460.606C655.046 461.26 655.445 462.138 655.445 463.35H657.445ZM655.6 459.094C654.394 458.049 652.901 457.55 651.195 457.55V459.55C652.489 459.55 653.496 459.918 654.29 460.606L655.6 459.094ZM651.195 457.55C649.553 457.55 648.103 458.033 646.905 459.032L648.185 460.568C648.987 459.9 649.97 459.55 651.195 459.55V457.55ZM646.892 459.043C645.708 460.063 645.017 461.483 644.756 463.2L646.734 463.5C646.939 462.15 647.449 461.203 648.198 460.557L646.892 459.043ZM645.745 464.35H656.445V462.35H645.745V464.35ZM672.105 458.45L671.214 457.997L671.208 458.008L672.105 458.45ZM676.555 453.45L677.085 454.298L677.085 454.298L676.555 453.45ZM687.955 452.9L687.477 453.778L687.485 453.782L687.955 452.9ZM691.405 456.05L690.554 456.574L692.405 459.583V456.05H691.405ZM691.405 452.1V451.1H690.405V452.1H691.405ZM699.955 452.1H700.955V451.1H699.955V452.1ZM699.955 480V481H700.955V480H699.955ZM691.405 480H690.405V481H691.405V480ZM691.405 476.05H692.405V472.637L690.564 475.51L691.405 476.05ZM687.905 479.2L687.435 478.318L687.427 478.322L687.905 479.2ZM676.555 478.65L676.015 479.491L676.025 479.498L676.555 478.65ZM672.105 473.6L671.206 474.036L671.21 474.045L671.214 474.053L672.105 473.6ZM689.605 461L688.879 461.687L688.889 461.697L689.605 461ZM680.955 461L680.239 460.303L680.238 460.303L680.955 461ZM680.955 471.1L680.22 471.777L680.229 471.788L680.239 471.797L680.955 471.1ZM689.605 471.1L688.889 470.403L688.879 470.413L689.605 471.1ZM671.505 466C671.505 463.258 672.015 460.898 673.003 458.892L671.208 458.008C670.062 460.336 669.505 463.009 669.505 466H671.505ZM672.997 458.903C674.024 456.881 675.389 455.358 677.085 454.298L676.025 452.602C673.989 453.875 672.387 455.686 671.214 457.997L672.997 458.903ZM677.085 454.298C678.786 453.235 680.684 452.7 682.805 452.7V450.7C680.327 450.7 678.058 451.331 676.025 452.602L677.085 454.298ZM682.805 452.7C684.635 452.7 686.181 453.071 687.477 453.778L688.434 452.022C686.797 451.129 684.91 450.7 682.805 450.7V452.7ZM687.485 453.782C688.847 454.509 689.857 455.442 690.554 456.574L692.257 455.526C691.354 454.058 690.064 452.891 688.426 452.018L687.485 453.782ZM692.405 456.05V452.1H690.405V456.05H692.405ZM691.405 453.1H699.955V451.1H691.405V453.1ZM698.955 452.1V480H700.955V452.1H698.955ZM699.955 479H691.405V481H699.955V479ZM692.405 480V476.05H690.405V480H692.405ZM690.564 475.51C689.832 476.652 688.799 477.59 687.435 478.318L688.376 480.082C690.012 479.21 691.313 478.048 692.247 476.59L690.564 475.51ZM687.427 478.322C686.131 479.029 684.585 479.4 682.755 479.4V481.4C684.86 481.4 686.747 480.971 688.384 480.078L687.427 478.322ZM682.755 479.4C680.67 479.4 678.788 478.866 677.085 477.802L676.025 479.498C678.056 480.767 680.307 481.4 682.755 481.4V479.4ZM677.096 477.809C675.393 476.714 674.025 475.171 672.997 473.147L671.214 474.053C672.386 476.362 673.985 478.186 676.015 479.491L677.096 477.809ZM673.005 473.164C672.015 471.121 671.505 468.741 671.505 466H669.505C669.505 468.992 670.063 471.679 671.206 474.036L673.005 473.164ZM692.405 466.05C692.405 463.722 691.745 461.765 690.322 460.303L688.889 461.697C689.866 462.702 690.405 464.111 690.405 466.05H692.405ZM690.332 460.313C688.976 458.879 687.28 458.15 685.305 458.15V460.15C686.731 460.15 687.902 460.654 688.879 461.687L690.332 460.313ZM685.305 458.15C683.332 458.15 681.624 458.878 680.239 460.303L681.672 461.697C682.687 460.655 683.879 460.15 685.305 460.15V458.15ZM680.238 460.303C678.844 461.737 678.205 463.681 678.205 466H680.205C680.205 464.052 680.733 462.663 681.672 461.697L680.238 460.303ZM678.205 466C678.205 468.322 678.845 470.285 680.22 471.777L681.691 470.423C680.733 469.382 680.205 467.945 680.205 466H678.205ZM680.239 471.797C681.624 473.222 683.332 473.95 685.305 473.95V471.95C683.879 471.95 682.687 471.445 681.672 470.403L680.239 471.797ZM685.305 473.95C687.28 473.95 688.976 473.221 690.332 471.787L688.879 470.413C687.902 471.446 686.731 471.95 685.305 471.95V473.95ZM690.322 471.797C691.745 470.335 692.405 468.378 692.405 466.05H690.405C690.405 467.989 689.866 469.398 688.889 470.403L690.322 471.797ZM733.441 455L732.7 455.672L732.706 455.678L732.711 455.684L733.441 455ZM736.391 480V481H737.391V480H736.391ZM727.891 480H726.891V481H727.891V480ZM726.441 460.5L725.711 461.183L725.711 461.183L726.441 460.5ZM718.641 460.5L719.371 461.183L719.371 461.183L718.641 460.5ZM717.191 480V481H718.191V480H717.191ZM708.641 480H707.641V481H708.641V480ZM708.641 452.1V451.1H707.641V452.1H708.641ZM717.191 452.1H718.191V451.1H717.191V452.1ZM717.191 455.8H716.191V458.962L718.009 456.375L717.191 455.8ZM720.691 452.9L721.122 453.802L721.13 453.799L721.138 453.794L720.691 452.9ZM725.641 452.8C728.667 452.8 730.983 453.777 732.7 455.672L734.182 454.328C732.033 451.957 729.148 450.8 725.641 450.8V452.8ZM732.711 455.684C734.459 457.55 735.391 460.179 735.391 463.7H737.391C737.391 459.821 736.356 456.65 734.171 454.316L732.711 455.684ZM735.391 463.7V480H737.391V463.7H735.391ZM736.391 479H727.891V481H736.391V479ZM728.891 480V464.85H726.891V480H728.891ZM728.891 464.85C728.891 462.813 728.361 461.088 727.171 459.817L725.711 461.183C726.455 461.978 726.891 463.154 726.891 464.85H728.891ZM727.171 459.817C725.986 458.55 724.404 457.95 722.541 457.95V459.95C723.944 459.95 724.963 460.384 725.711 461.183L727.171 459.817ZM722.541 457.95C720.678 457.95 719.096 458.55 717.911 459.817L719.371 461.183C720.119 460.384 721.138 459.95 722.541 459.95V457.95ZM717.911 459.817C716.721 461.088 716.191 462.813 716.191 464.85H718.191C718.191 463.154 718.627 461.978 719.371 461.183L717.911 459.817ZM716.191 464.85V480H718.191V464.85H716.191ZM717.191 479H708.641V481H717.191V479ZM709.641 480V452.1H707.641V480H709.641ZM708.641 453.1H717.191V451.1H708.641V453.1ZM716.191 452.1V455.8H718.191V452.1H716.191ZM718.009 456.375C718.769 455.293 719.798 454.434 721.122 453.802L720.26 451.998C718.651 452.766 717.346 453.84 716.373 455.225L718.009 456.375ZM721.138 453.794C722.45 453.138 723.944 452.8 725.641 452.8V450.8C723.671 450.8 721.865 451.195 720.244 452.006L721.138 453.794Z" fill="black"/>
<path d="M730 349.992C730 422.889 666.071 365.604 578.257 365.604C490.444 365.604 412 422.889 412 349.992C412 277.095 483.187 218 571 218C658.813 218 730 277.095 730 349.992Z" fill="#39F2A3"/>
<circle cx="625.5" cy="299.5" r="4.5" fill="black"/>
<circle cx="675.5" cy="299.5" r="4.5" fill="black"/>
<path d="M635 327C635 327 648.913 345 667 327" stroke="black" stroke-width="3"/>
</svg>
