<?xml version="1.0" encoding="iso-8859-1"?>
<!-- Generator: Adobe Illustrator 19.0.0, SVG Export Plug-In . SVG Version: 6.00 Build 0)  -->
<svg version="1.1" id="Layer_1" xmlns="http://www.w3.org/2000/svg" xmlns:xlink="http://www.w3.org/1999/xlink" x="0px" y="0px"
	 viewBox="0 0 511.984 511.984" style="enable-background:new 0 0 511.984 511.984;" xml:space="preserve">
<rect x="434.156" y="382.273" transform="matrix(-0.707 0.7072 -0.7072 -0.707 1089.2817 451.1002)" width="34.08" height="137.839"/>
<path style="fill:#FFFFFF;" d="M238.376,468.758C111.344,468.758,8,365.414,8,238.382C8,111.358,111.344,8.014,238.376,8.014
	c127.024,0,230.368,103.344,230.368,230.368C468.744,365.414,365.4,468.758,238.376,468.758z"/>
<path style="fill:#13B7E6;" d="M238.376,16.014c122.616,0,222.376,99.752,222.376,222.376s-99.76,222.368-222.376,222.368
	S16,360.998,16,238.382S115.752,16.014,238.376,16.014 M238.376,0.014C106.72,0.014,0,106.734,0,238.382
	s106.72,238.376,238.376,238.376s238.376-106.72,238.376-238.376C476.744,106.734,370.024,0.014,238.376,0.014L238.376,0.014z"/>
<path d="M346.568,342.214H126.184c-21.264,0-38.656-17.4-38.656-38.656V166.286c0-21.264,17.4-38.656,38.656-38.656H346.56
	c21.264,0,38.656,17.4,38.656,38.656v137.272C385.224,324.822,367.824,342.214,346.568,342.214z"/>
<rect x="87.528" y="169.886" style="fill:#FF583E;" width="297.68" height="49.616"/>
<g>
</g>
<g>
</g>
<g>
</g>
<g>
</g>
<g>
</g>
<g>
</g>
<g>
</g>
<g>
</g>
<g>
</g>
<g>
</g>
<g>
</g>
<g>
</g>
<g>
</g>
<g>
</g>
<g>
</g>
</svg>
