<?xml version="1.0" encoding="iso-8859-1"?>
<!-- Generator: Adobe Illustrator 19.0.0, SVG Export Plug-In . SVG Version: 6.00 Build 0)  -->
<svg version="1.1" id="Layer_1" xmlns="http://www.w3.org/2000/svg" xmlns:xlink="http://www.w3.org/1999/xlink" x="0px" y="0px"
	 viewBox="0 0 512 512" style="enable-background:new 0 0 512 512;" xml:space="preserve">
<g>
	<path style="fill:#FFFFFF;" d="M40,400c-13.232,0-24-10.768-24-24v-16h16h16h145.008c3.56,13.784,16.104,24,30.992,24h32v16H40z"/>
	<path style="fill:#FFFFFF;" d="M448,312H280c-13.232,0-24,10.768-24,24v8h-48h-8H48V219.008C62.144,227.216,78.504,232,96,232
		c52.936,0,96-43.064,96-96c0-17.496-4.784-33.856-12.992-48H368v80l42.664-32H448V312z"/>
	<path style="fill:#FFFFFF;" d="M256,368h-32c-5.896,0-11-3.24-13.776-8H256V368z"/>
</g>
<g>
	<path style="fill:#DCDDDE;" d="M280,368h-32v40h208c17.6,0,32-14.4,32-32v-24H296C296,360.832,288.832,368,280,368z"/>
	<path style="fill:#DCDDDE;" d="M248,80h184c13.256,0,24,10.744,24,24v272H248V80z"/>
</g>
<path style="fill:#53B7E8;" d="M488,336v112c0,8.84-7.16,16-16,16H280c-8.84,0-16-7.16-16-16V336c0-8.84,7.16-16,16-16h192
	C480.84,320,488,327.16,488,336z"/>
<circle style="fill:#67C18C;" cx="96" cy="136" r="88"/>
<polygon style="fill:#FFD768;" points="376,152 408,128 504,128 504,48 376,48 "/>
<g>
	<rect x="304" y="128" style="fill:#0C3847;" width="16" height="96"/>
	<rect x="272" y="160" style="fill:#0C3847;" width="16" height="64"/>
	<rect x="72" y="248" style="fill:#0C3847;" width="152" height="16"/>
	<rect x="72" y="280" style="fill:#0C3847;" width="160" height="16"/>
	<rect x="72" y="312" style="fill:#0C3847;" width="72" height="16"/>
	<rect x="272" y="248" style="fill:#0C3847;" width="152" height="16"/>
	<rect x="272" y="280" style="fill:#0C3847;" width="160" height="16"/>
	<rect x="336" y="160" style="fill:#0C3847;" width="16" height="64"/>
	<rect x="368" y="192" style="fill:#0C3847;" width="16" height="32"/>
	<rect x="400" y="176" style="fill:#0C3847;" width="16" height="48"/>
</g>
<g>
	<path style="fill:#FFFFFF;" d="M88,144h16c4.408,0,8,3.592,8,8s-3.592,8-8,8H88H72v16h16v16h16v-16c13.232,0,24-10.768,24-24
		s-10.768-24-24-24H88c-4.408,0-8-3.592-8-8s3.592-8,8-8h16h16V96h-16V80H88v16c-13.232,0-24,10.768-24,24S74.768,144,88,144z"/>
	<rect x="288" y="424" style="fill:#FFFFFF;" width="64" height="16"/>
	<rect x="368" y="424" style="fill:#FFFFFF;" width="32" height="16"/>
</g>
<g>
	<path style="fill:#0C3847;" d="M512,136V40H368v32H167.352C149.76,52.416,124.336,40,96,40C43.064,40,0,83.064,0,136
		c0,28.336,12.416,53.76,32,71.352V344H0v32c0,22.056,17.944,40,40,40h216v32c0,13.232,10.768,24,24,24h192
		c13.232,0,24-10.768,24-24v-72v-32v-8c0-13.232-10.768-24-24-24h-8V136H512z M384,56h112v64h-90.664L384,136V56z M16.408,144H24
		v-16h-7.592C20.168,90.264,50.264,60.168,88,56.408V64h16v-7.592c37.736,3.768,67.832,33.856,71.592,71.592H168v16h7.592
		c-3.768,37.736-33.856,67.832-71.592,71.592V208H88v7.592C50.264,211.832,20.168,181.736,16.408,144z M40,400
		c-13.232,0-24-10.768-24-24v-16h16h16h145.008c3.56,13.784,16.104,24,30.992,24h32v16H40z M256,368h-32c-5.896,0-11-3.24-13.776-8
		H256V368z M472,456H280c-4.408,0-8-3.592-8-8v-64h208v64C480,452.408,476.408,456,472,456z M480,336v16H272v-16
		c0-4.408,3.592-8,8-8h192C476.408,328,480,331.592,480,336z M448,312H280c-13.232,0-24,10.768-24,24v8h-48h-8H48V219.008
		C62.144,227.216,78.504,232,96,232c52.936,0,96-43.064,96-96c0-17.496-4.784-33.856-12.992-48H368v80l42.664-32H448V312z"/>
	<rect x="464" y="80" style="fill:#0C3847;" width="16" height="16"/>
	<rect x="432" y="80" style="fill:#0C3847;" width="16" height="16"/>
	<rect x="400" y="80" style="fill:#0C3847;" width="16" height="16"/>
</g>
<g>
</g>
<g>
</g>
<g>
</g>
<g>
</g>
<g>
</g>
<g>
</g>
<g>
</g>
<g>
</g>
<g>
</g>
<g>
</g>
<g>
</g>
<g>
</g>
<g>
</g>
<g>
</g>
<g>
</g>
</svg>
