<?xml version="1.0" encoding="iso-8859-1"?>
<!-- Generator: Adobe Illustrator 19.1.0, SVG Export Plug-In . SVG Version: 6.00 Build 0)  -->
<svg version="1.1" id="Capa_1" xmlns="http://www.w3.org/2000/svg" xmlns:xlink="http://www.w3.org/1999/xlink" x="0px" y="0px"
	 viewBox="0 0 488.863 488.863" style="enable-background:new 0 0 488.863 488.863;" xml:space="preserve">
<g>
	<g>
		<path d="M477.45,422.556l-103.8-103.8l-7.3,7.3l-11.2-11.2c57.6-77.2,51.4-187-18.7-257.1c-77-77-201.8-77-278.7,0
			c-77,77-77,201.8,0,278.7c70.1,70.1,179.9,76.4,257.1,18.7l11.2,11.2l-7.3,7.3l103.8,103.8c15.2,15.2,39.8,15.2,55,0
			C492.65,462.356,492.65,437.756,477.45,422.556z M301.15,301.256c-57.5,57.5-150.8,57.5-208.3,0s-57.5-150.8,0-208.3
			s150.8-57.5,208.3,0S358.65,243.756,301.15,301.256z"/>
		<path d="M226.95,187.256c-8.5-4.7-17.5-8.2-26.4-11.9c-5.2-2.1-10.1-4.7-14.5-8.1c-8.6-6.9-6.9-18,3.1-22.4
			c2.8-1.2,5.8-1.6,8.9-1.8c11.7-0.6,22.8,1.5,33.3,6.6c5.3,2.5,7,1.7,8.8-3.7c1.9-5.8,3.5-11.7,5.1-17.5c1.1-3.9-0.3-6.5-4-8.2
			c-6.8-3-13.7-5.1-21-6.3c-9.5-1.5-9.5-1.5-9.6-11.1c-0.1-13.5-0.1-13.5-13.6-13.5c-2,0-3.9,0-5.9,0c-6.3,0.2-7.4,1.3-7.6,7.7
			c-0.1,2.9,0,5.7,0,8.6c0,8.5-0.1,8.3-8.2,11.3c-19.6,7.1-31.7,20.5-33,41.9c-1.2,18.9,8.7,31.7,24.3,41
			c9.6,5.7,20.2,9.2,30.3,13.6c4,1.7,7.7,3.8,11.1,6.5c9.8,8,8,21.5-3.6,26.5c-6.2,2.7-12.7,3.4-19.5,2.6c-10.4-1.3-20.3-4-29.6-8.9
			c-5.5-2.9-7.1-2.1-8.9,3.8c-1.6,5.1-3,10.3-4.4,15.5c-1.9,7-1.2,8.6,5.4,11.8c8.4,4.1,17.5,6.2,26.7,7.7c7.2,1.1,7.5,1.5,7.5,8.9
			c0,3.4,0.1,6.8,0.1,10.2c0.1,4.3,2.1,6.8,6.5,6.9c5,0.1,10,0.1,15,0c4.1-0.1,6.2-2.3,6.2-6.5c0-4.7,0.2-9.3,0-13.9
			c-0.2-4.7,1.8-7.1,6.4-8.4c10.4-2.9,19.4-8.5,26.3-16.8C261.25,236.056,253.95,202.156,226.95,187.256z"/>
	</g>
</g>
<g>
</g>
<g>
</g>
<g>
</g>
<g>
</g>
<g>
</g>
<g>
</g>
<g>
</g>
<g>
</g>
<g>
</g>
<g>
</g>
<g>
</g>
<g>
</g>
<g>
</g>
<g>
</g>
<g>
</g>
</svg>
