<?xml version="1.0" encoding="iso-8859-1"?>
<!-- Generator: Adobe Illustrator 19.0.0, SVG Export Plug-In . SVG Version: 6.00 Build 0)  -->
<svg version="1.1" id="Layer_1" xmlns="http://www.w3.org/2000/svg" xmlns:xlink="http://www.w3.org/1999/xlink" x="0px" y="0px"
	 viewBox="0 0 508.1 508.1" style="enable-background:new 0 0 508.1 508.1;" xml:space="preserve">
<path style="fill:#FFFFFF;" d="M479.8,42.35c0-7.8-6.3-14.1-14.1-14.1H42.3c-7.8,0-14.1,6.3-14.1,14.1v273.7h451.6L479.8,42.35
	L479.8,42.35z"/>
<path style="fill:#56ACE0;" d="M28.2,392.65c0,7.8,6.3,14.1,14.1,14.1h423.3c7.8,0,14.1-6.3,14.1-14.1v-48.4H28.2V392.65z"/>
<g>
	<path style="fill:#FFC10D;" d="M224.8,435.05c-2.2,17.1-9.5,32.5-20.4,44.8h99.2c-10.9-12.3-18.2-27.7-20.4-44.8H224.8z"/>
	<rect x="254" y="68.45" style="fill:#FFC10D;" width="115.8" height="54.4"/>
</g>
<g>
	<path style="fill:#194F82;" d="M465.7,0.05H42.3C19,0.05,0,19.05,0,42.35v350.3c0,23.4,19,42.4,42.3,42.4h154
		c-5,25.5-27.4,44.8-54.3,44.8h-33.3c-7.8,0-14.1,6.3-14.1,14.1s6.3,14.1,14.1,14.1h290.7c7.8,0,14.1-6.3,14.1-14.1
		s-6.3-14.1-14.1-14.1h-33.3c-26.9,0-49.4-19.3-54.3-44.8h154c23.3,0,42.3-19,42.3-42.3V42.35C508,19.05,489,0.05,465.7,0.05z
		 M204.4,479.85c10.9-12.3,18.2-27.7,20.4-44.8h58.4c2.2,17.1,9.5,32.5,20.4,44.8H204.4z M479.8,392.65c0,7.8-6.3,14.1-14.1,14.1
		H42.3c-7.8,0-14.1-6.3-14.1-14.1v-48.4h451.6L479.8,392.65L479.8,392.65z M479.8,316.15H28.2V42.35c0-7.8,6.3-14.1,14.1-14.1h423.3
		c7.8,0,14.1,6.3,14.1,14.1v273.8H479.8z"/>
	<path style="fill:#194F82;" d="M238.1,389.05h31.8c7.8,0,14.1-6.3,14.1-14.1s-6.3-14.1-14.1-14.1h-31.8c-7.8,0-14.1,6.3-14.1,14.1
		S230.3,389.05,238.1,389.05z"/>
	<path style="fill:#194F82;" d="M128,107.25c14.4,0,26.1,11.7,26.1,26.1c0,7.8,6.3,14.1,14.1,14.1s14.1-6.3,14.1-14.1
		c0-25.1-17.1-46.2-40.2-52.4v-12.3c0-7.8-6.3-14.1-14.1-14.1s-14.1,6.3-14.1,14.1v12.3c-23.1,6.2-40.2,27.3-40.2,52.4
		c0,30,26.4,54.2,56.4,54.2c-0.4,0.1,0,0,0.1,0c13.4,1.1,23.9,12.4,23.9,26c0,14.4-11.7,26.1-26.1,26.1s-26.1-11.7-26.1-26.1
		c0-7.8-6.3-14.1-14.1-14.1s-14.1,6.3-14.1,14.1c0,25.1,17.1,46.2,40.2,52.4v12.2c0,7.8,6.3,14.1,14.1,14.1s14.1-6.3,14.1-14.1
		v-12.1c23.1-6.2,40.2-27.3,40.2-52.4c0-30-24.4-54.3-54.4-54.3c0.4-0.1,0,0-0.1,0c-13.4-1.1-26-12.2-26-25.9
		C101.9,118.95,113.6,107.25,128,107.25z"/>
</g>
<path style="fill:#FFC10D;" d="M350.8,191.55l18.7,45.9l4.2-13.6c1.4-4.5,4.9-8,9.4-9.4l13.6-4.2L350.8,191.55z"/>
<path style="fill:#194F82;" d="M444,199.05l-113.6-46.3c-5.3-2.1-11.3-0.9-15.3,3.1s-5.2,10-3.1,15.3l46.3,113.6
	c2.2,5.3,7.4,8.8,13.1,8.8c4.7,0,11.4-2.9,13.5-10l8.9-29.1l16.2,16.2c5.5,5.9,14.6,5.2,20,0c5.5-5.5,5.5-14.4,0-20l-16.2-16.2
	l29.1-8.9c5.7-1.7,9.7-6.9,10-12.9C453.1,206.75,449.6,201.25,444,199.05z M373.6,223.75l-4.2,13.6l-18.7-45.9l45.9,18.7l-13.6,4.2
	C378.5,215.75,375,219.25,373.6,223.75z"/>
<g>
</g>
<g>
</g>
<g>
</g>
<g>
</g>
<g>
</g>
<g>
</g>
<g>
</g>
<g>
</g>
<g>
</g>
<g>
</g>
<g>
</g>
<g>
</g>
<g>
</g>
<g>
</g>
<g>
</g>
</svg>
