<?xml version="1.0" encoding="iso-8859-1"?>
<!-- Generator: Adobe Illustrator 19.0.0, SVG Export Plug-In . SVG Version: 6.00 Build 0)  -->
<svg version="1.1" id="Layer_1" xmlns="http://www.w3.org/2000/svg" xmlns:xlink="http://www.w3.org/1999/xlink" x="0px" y="0px"
	 viewBox="0 0 512 512" style="enable-background:new 0 0 512 512;" xml:space="preserve">
<g>
	<polygon style="fill:#333E48;" points="313.903,348.197 198.097,348.197 183.938,436.933 328.062,436.933 	"/>
	<path style="fill:#333E48;" d="M512,59.41c0-12.112-9.91-22.022-22.021-22.022H22.022C9.91,37.388,0,47.298,0,59.41v297.599
		c0,12.112,9.91,22.022,22.022,22.022h467.957c12.112,0,22.021-9.91,22.021-22.022V59.41z"/>
</g>
<rect x="44.406" y="82.534" style="fill:#FFFFFF;" width="423.187" height="234.826"/>
<rect x="76.536" y="124.388" style="fill:#FF9E16;" width="125.512" height="60.834"/>
<rect x="76.536" y="222.164" style="fill:#0055B8;" width="125.512" height="60.834"/>
<rect x="243.338" y="124.388" style="fill:#4BB6AA;" width="188.207" height="158.61"/>
<path style="fill:#333E48;" d="M338.506,196.015l32.274,32.274c2.998,2.998,2.998,7.904,0,10.901l-8.871,8.874
	c-2.997,2.998-7.901,2.998-10.898,0.001l-32.276-32.275l-11.435,28.315c-1.587,3.93-3.824,3.806-4.97-0.274l-22.989-81.869
	c-1.146-4.081,1.256-6.483,5.338-5.337l81.869,22.988c4.082,1.146,4.204,3.383,0.273,4.97L338.506,196.015z"/>
<path style="fill:#0071CE;" d="M0,317.365v39.643c0,12.112,9.91,22.022,22.022,22.022h467.957c12.112,0,22.021-9.91,22.021-22.022
	v-39.643H0z"/>
<circle style="fill:#333E48;" cx="256" cy="348.193" r="8.258"/>
<path style="fill:#0071CE;" d="M346.901,474.612c10.404,0,18.838-8.434,18.838-18.838c0-10.405-8.434-18.839-18.838-18.839H165.099
	c-10.405,0-18.839,8.434-18.839,18.839c0,10.404,8.434,18.838,18.839,18.838H346.901z"/>
<g>
</g>
<g>
</g>
<g>
</g>
<g>
</g>
<g>
</g>
<g>
</g>
<g>
</g>
<g>
</g>
<g>
</g>
<g>
</g>
<g>
</g>
<g>
</g>
<g>
</g>
<g>
</g>
<g>
</g>
</svg>
