<?xml version="1.0" encoding="iso-8859-1"?>
<!-- Generator: Adobe Illustrator 19.0.0, SVG Export Plug-In . SVG Version: 6.00 Build 0)  -->
<svg version="1.1" id="Layer_1" xmlns="http://www.w3.org/2000/svg" xmlns:xlink="http://www.w3.org/1999/xlink" x="0px" y="0px"
	 viewBox="0 0 508.075 508.075" style="enable-background:new 0 0 508.075 508.075;" xml:space="preserve">
<path style="fill:#194F82;" d="M502.942,326.8c-1.7-7.1-8.6-11.7-15.7-10.6c-19,3.4-35.6-0.6-50.5-9.5V14.1
	c0-7.8-6.3-14.1-14.1-14.1h-408.5c-7.8,0-14.1,6.3-14.1,14.1v408.5c0,7.8,6.3,14.1,14.1,14.1h311.5c14.4,37.1,41.5,61.3,82.9,71
	c2.1,0.5,4.2,0.5,6.4,0C538.642,476.9,503.642,329.9,502.942,326.8z M320.542,326.8c-0.5,2.2-9.5,40.3-2.5,81.6h-289.8V28.2h380.2
	v259.3c-3.7,0.8-6.9,3.2-8.9,6.5c-13.1,16.8-32.6,26.1-63.3,22.1C329.142,315.1,322.242,319.8,320.542,326.8z M411.742,479.4
	c-54-13.1-74.9-64.2-65.9-134c26.9,1.1,48.3-7.5,65.9-22.6c18.1,16.4,40.4,23.2,65.9,22.6
	C486.342,413.3,468.642,464.2,411.742,479.4z"/>
<path style="fill:#FFFFFF;" d="M320.542,326.8c1.7-7.1,8.5-11.7,15.7-10.6c30.8,4,50.2-5.3,63.3-22.1c2-3.3,5.2-5.7,8.9-6.5V109.2
	h-380.2v299.3h289.8C311.142,367.2,320.042,329,320.542,326.8z"/>
<path style="fill:#FFC10D;" d="M477.642,345.3c-25.5,0.6-47.8-6.2-65.9-22.6c-17.6,15.1-38.9,23.7-65.9,22.6
	c-9.1,69.8,11.9,120.9,65.9,134C468.642,464.2,486.342,413.3,477.642,345.3z"/>
<rect x="28.242" y="28.2" style="fill:#56ACE0;" width="380.2" height="81"/>
<g>
	<path style="fill:#194F82;" d="M245.142,67c0-7.8-6.3-14.1-14.1-14.1h-162c-7.8,0-14.1,6.3-14.1,14.1s6.3,14.1,14.1,14.1h162
		C238.742,81.1,245.142,74.8,245.142,67z"/>
	<path style="fill:#194F82;" d="M348.742,81.1h19.1c7.8,0,14.1-6.3,14.1-14.1s-6.3-14.1-14.1-14.1h-19.1c-7.8,0-14.1,6.3-14.1,14.1
		S340.942,81.1,348.742,81.1z"/>
	<path style="fill:#194F82;" d="M278.742,81.1h19.1c7.8,0,14.1-6.3,14.1-14.1s-6.3-14.1-14.1-14.1h-19.1c-7.8,0-14.1,6.3-14.1,14.1
		S270.942,81.1,278.742,81.1z"/>
	<path style="fill:#194F82;" d="M241.542,148c-7.8,0-14.1,6.3-14.1,14.1s6.3,14.1,14.1,14.1h136.9c7.8,0,14.1-6.3,14.1-14.1
		s-6.3-14.1-14.1-14.1H241.542z"/>
	<path style="fill:#194F82;" d="M392.542,214.4c0-7.8-6.3-14.1-14.1-14.1h-136.9c-7.8,0-14.1,6.3-14.1,14.1s6.3,14.1,14.1,14.1
		h136.9C386.242,228.5,392.542,222.2,392.542,214.4z"/>
	<path style="fill:#194F82;" d="M392.542,266.6c0-7.8-6.3-14.1-14.1-14.1h-38.3c-7.8,0-14.1,6.3-14.1,14.1c0,7.8,6.3,14.1,14.1,14.1
		h38.3C386.242,280.7,392.542,274.4,392.542,266.6z"/>
</g>
<ellipse style="fill:#FFC10D;" cx="132.342" cy="253.8" rx="82.2" ry="113"/>
<path style="fill:#194F82;" d="M132.342,203.6c10,0,18.1,8.1,18.1,18.1c0,7.8,6.3,14.1,14.1,14.1s14.1-6.3,14.1-14.1
	c0-20.6-13.6-38.2-32.2-44.1v-7.7c0-7.8-6.3-14.1-14.1-14.1s-14.1,6.3-14.1,14.1v7.7c-18.7,6-32.2,23.5-32.2,44.1
	c0,25.6,20.8,46.4,46.4,46.4c-0.4,0,0,0,0.1,0c9.2,0.9,18,8.5,18,17.9c0,10-8.1,18.1-18.1,18.1s-18.1-8.1-18.1-18.1
	c0-7.8-6.3-14.1-14.1-14.1s-14.1,6.3-14.1,14.1c0,20.6,13.6,38.2,32.2,44.1v7.6c0,7.8,6.3,14.1,14.1,14.1s14.1-6.3,14.1-14.1v-7.6
	c18.7-6,32.2-23.5,32.2-44.1c0-25.6-21.9-46.3-47.5-46.3c-0.6,0,0,0-0.6,0.1c-9.2-0.9-16.4-8.6-16.4-18.1
	C114.142,211.7,122.342,203.6,132.342,203.6z"/>
<g>
</g>
<g>
</g>
<g>
</g>
<g>
</g>
<g>
</g>
<g>
</g>
<g>
</g>
<g>
</g>
<g>
</g>
<g>
</g>
<g>
</g>
<g>
</g>
<g>
</g>
<g>
</g>
<g>
</g>
</svg>
