<?xml version="1.0" encoding="iso-8859-1"?>
<!-- Generator: Adobe Illustrator 19.0.0, SVG Export Plug-In . SVG Version: 6.00 Build 0)  -->
<svg version="1.1" id="Layer_1" xmlns="http://www.w3.org/2000/svg" xmlns:xlink="http://www.w3.org/1999/xlink" x="0px" y="0px"
	 viewBox="0 0 512 512" style="enable-background:new 0 0 512 512;" xml:space="preserve">
<path style="fill:#0071CE;" d="M512,101.71c0-16.043-13.126-29.169-29.167-29.169H29.169C13.126,72.542,0,85.668,0,101.71V410.29
	c0,16.043,13.126,29.169,29.169,29.169h453.664c16.042,0,29.167-13.126,29.167-29.169V101.71z"/>
<path style="fill:#FFFFFF;" d="M404.708,229.205l34.198,34.199c3.177,3.177,3.177,8.374,0,11.551l-9.401,9.402
	c-3.175,3.177-8.372,3.177-11.547,0.001l-34.202-34.2l-12.117,30.004c-1.68,4.165-4.05,4.033-5.266-0.29l-24.362-86.752
	c-1.214-4.324,1.333-6.87,5.657-5.655l86.752,24.36c4.324,1.215,4.454,3.584,0.29,5.267L404.708,229.205z"/>
<rect x="51.868" y="170.562" style="fill:#00A8E1;" width="232.18" height="133.547"/>
<g>
	<path style="fill:#FFFFFF;" d="M244.725,224.247H91.193c-4.582,0-8.297-3.715-8.297-8.297c0-4.582,3.715-8.297,8.297-8.297h153.532
		c4.582,0,8.297,3.715,8.297,8.297S249.307,224.247,244.725,224.247z"/>
	<path style="fill:#FFFFFF;" d="M226.005,266.249H109.913c-4.582,0-8.297-3.715-8.297-8.297s3.715-8.297,8.297-8.297h116.091
		c4.582,0,8.297,3.715,8.297,8.297C234.302,262.534,230.587,266.249,226.005,266.249z"/>
</g>
<rect x="51.868" y="339.299" style="fill:#0055B8;" width="407.886" height="53.366"/>
<path style="fill:#333E48;" d="M482.833,72.542H29.169C13.126,72.542,0,85.668,0,101.71v37.619h512V101.71
	C512,85.668,498.874,72.542,482.833,72.542z"/>
<g>
	<circle style="fill:#FFFFFF;" cx="60.246" cy="105.935" r="8.382"/>
	<circle style="fill:#FFFFFF;" cx="91.144" cy="105.935" r="8.382"/>
	<circle style="fill:#FFFFFF;" cx="122.031" cy="105.935" r="8.383"/>
</g>
<g>
</g>
<g>
</g>
<g>
</g>
<g>
</g>
<g>
</g>
<g>
</g>
<g>
</g>
<g>
</g>
<g>
</g>
<g>
</g>
<g>
</g>
<g>
</g>
<g>
</g>
<g>
</g>
<g>
</g>
</svg>
