<svg width="500" height="500" viewBox="0 0 500 500" fill="none" xmlns="http://www.w3.org/2000/svg">
<path d="M363 383C363 434.362 314.55 394 248 394C181.45 394 122 434.362 122 383C122 331.638 175.95 290 242.5 290C309.05 290 363 331.638 363 383Z" fill="#39F2A3"/>
<ellipse cx="283.5" cy="347" rx="2.5" ry="3" fill="black"/>
<ellipse cx="325.5" cy="347" rx="2.5" ry="3" fill="black"/>
<path d="M292 366.5C292 366.5 302 380 315 366.5" stroke="black" stroke-width="3"/>
<path d="M158.126 426.388V441H152.794V422.509H157.802L158.126 426.388ZM157.443 431.105L156.093 431.139C156.093 429.84 156.247 428.65 156.554 427.567C156.873 426.474 157.335 425.522 157.938 424.713C158.542 423.904 159.289 423.278 160.177 422.833C161.077 422.389 162.114 422.167 163.288 422.167C164.108 422.167 164.854 422.292 165.526 422.543C166.199 422.782 166.774 423.164 167.252 423.688C167.742 424.201 168.118 424.873 168.38 425.705C168.642 426.525 168.773 427.51 168.773 428.661V441H163.441V429.311C163.441 428.49 163.339 427.869 163.134 427.448C162.94 427.015 162.655 426.719 162.279 426.559C161.903 426.4 161.453 426.32 160.929 426.32C160.36 426.32 159.853 426.445 159.408 426.696C158.975 426.935 158.611 427.271 158.314 427.704C158.018 428.137 157.796 428.644 157.648 429.225C157.511 429.806 157.443 430.433 157.443 431.105ZM168.227 430.832L166.535 430.968C166.535 429.715 166.683 428.553 166.979 427.482C167.275 426.411 167.72 425.482 168.312 424.696C168.904 423.899 169.639 423.278 170.517 422.833C171.405 422.389 172.436 422.167 173.61 422.167C174.476 422.167 175.262 422.292 175.968 422.543C176.686 422.794 177.301 423.198 177.814 423.756C178.338 424.315 178.743 425.049 179.027 425.961C179.312 426.861 179.455 427.966 179.455 429.276V441H174.088V429.276C174.088 428.467 173.986 427.852 173.781 427.431C173.587 427.009 173.302 426.719 172.926 426.559C172.562 426.4 172.123 426.32 171.61 426.32C171.041 426.32 170.545 426.439 170.124 426.679C169.702 426.907 169.349 427.226 169.064 427.636C168.779 428.035 168.568 428.507 168.432 429.054C168.295 429.601 168.227 430.194 168.227 430.832ZM182.257 431.942V431.583C182.257 430.228 182.451 428.98 182.838 427.841C183.226 426.69 183.795 425.693 184.547 424.85C185.299 424.007 186.222 423.352 187.316 422.885C188.41 422.406 189.663 422.167 191.076 422.167C192.511 422.167 193.776 422.406 194.87 422.885C195.975 423.352 196.903 424.007 197.655 424.85C198.407 425.693 198.977 426.69 199.364 427.841C199.752 428.98 199.945 430.228 199.945 431.583V431.942C199.945 433.287 199.752 434.534 199.364 435.685C198.977 436.824 198.407 437.821 197.655 438.676C196.903 439.519 195.98 440.174 194.887 440.641C193.793 441.108 192.534 441.342 191.11 441.342C189.697 441.342 188.438 441.108 187.333 440.641C186.228 440.174 185.299 439.519 184.547 438.676C183.795 437.821 183.226 436.824 182.838 435.685C182.451 434.534 182.257 433.287 182.257 431.942ZM187.606 431.583V431.942C187.606 432.672 187.663 433.355 187.777 433.993C187.903 434.631 188.102 435.189 188.375 435.668C188.649 436.146 189.008 436.522 189.452 436.796C189.908 437.058 190.46 437.189 191.11 437.189C191.759 437.189 192.306 437.058 192.75 436.796C193.195 436.522 193.554 436.146 193.827 435.668C194.101 435.189 194.294 434.631 194.408 433.993C194.534 433.355 194.596 432.672 194.596 431.942V431.583C194.596 430.866 194.534 430.194 194.408 429.567C194.294 428.929 194.101 428.365 193.827 427.875C193.554 427.385 193.189 427.003 192.733 426.73C192.289 426.457 191.736 426.32 191.076 426.32C190.438 426.32 189.896 426.457 189.452 426.73C189.008 427.003 188.649 427.385 188.375 427.875C188.102 428.365 187.903 428.929 187.777 429.567C187.663 430.194 187.606 430.866 187.606 431.583ZM207.978 426.457V441H202.628V422.509H207.653L207.978 426.457ZM207.277 431.105L205.944 431.139C205.944 429.749 206.115 428.502 206.457 427.396C206.798 426.291 207.283 425.351 207.909 424.577C208.547 423.791 209.305 423.192 210.182 422.782C211.071 422.372 212.051 422.167 213.122 422.167C213.987 422.167 214.779 422.292 215.497 422.543C216.215 422.794 216.83 423.198 217.343 423.756C217.867 424.303 218.266 425.032 218.539 425.944C218.812 426.844 218.949 427.955 218.949 429.276V441H213.583V429.259C213.583 428.485 213.475 427.886 213.258 427.465C213.042 427.043 212.723 426.747 212.301 426.576C211.891 426.405 211.39 426.32 210.797 426.32C210.171 426.32 209.635 426.445 209.191 426.696C208.747 426.935 208.382 427.271 208.097 427.704C207.812 428.137 207.602 428.644 207.465 429.225C207.34 429.806 207.277 430.433 207.277 431.105ZM231.151 441.342C229.682 441.342 228.366 441.108 227.204 440.641C226.042 440.174 225.056 439.53 224.247 438.71C223.45 437.878 222.84 436.921 222.418 435.839C221.997 434.757 221.786 433.6 221.786 432.37V431.72C221.786 430.342 221.98 429.071 222.367 427.909C222.755 426.747 223.319 425.739 224.059 424.884C224.811 424.018 225.734 423.352 226.828 422.885C227.921 422.406 229.169 422.167 230.57 422.167C231.881 422.167 233.048 422.383 234.074 422.816C235.099 423.238 235.965 423.847 236.671 424.645C237.378 425.431 237.913 426.382 238.278 427.499C238.654 428.604 238.842 429.846 238.842 431.225V433.412H223.939V429.977H233.612V429.567C233.612 428.917 233.493 428.348 233.253 427.858C233.026 427.368 232.684 426.992 232.228 426.73C231.784 426.457 231.22 426.32 230.536 426.32C229.887 426.32 229.346 426.457 228.913 426.73C228.48 427.003 228.132 427.391 227.87 427.892C227.619 428.382 227.437 428.957 227.323 429.618C227.209 430.268 227.152 430.968 227.152 431.72V432.37C227.152 433.087 227.249 433.743 227.443 434.335C227.637 434.927 227.921 435.434 228.297 435.856C228.673 436.278 229.129 436.608 229.665 436.847C230.2 437.086 230.81 437.206 231.493 437.206C232.336 437.206 233.139 437.047 233.903 436.728C234.666 436.397 235.327 435.884 235.885 435.189L238.38 438.043C238.004 438.59 237.475 439.12 236.791 439.633C236.119 440.134 235.31 440.544 234.364 440.863C233.419 441.182 232.348 441.342 231.151 441.342ZM246.771 438.864L251.608 422.509H257.35L249.916 443.769C249.757 444.236 249.54 444.737 249.267 445.272C249.005 445.808 248.646 446.321 248.19 446.811C247.746 447.3 247.176 447.699 246.481 448.007C245.786 448.314 244.931 448.468 243.917 448.468C243.405 448.468 243.006 448.44 242.721 448.383C242.448 448.337 242.083 448.257 241.627 448.144L241.61 444.264C241.758 444.264 241.889 444.264 242.003 444.264C242.129 444.276 242.254 444.281 242.379 444.281C243.017 444.281 243.53 444.213 243.917 444.076C244.316 443.939 244.624 443.734 244.84 443.461C245.068 443.199 245.25 442.863 245.387 442.453L246.771 438.864ZM245.148 422.509L248.976 435.668L249.625 441.325L246.02 441.513L239.406 422.509H245.148ZM259.093 414.75H264.425V436.608L263.878 441H259.093V414.75ZM275.961 431.549V431.908C275.961 433.31 275.813 434.586 275.517 435.736C275.232 436.887 274.793 437.884 274.201 438.727C273.608 439.559 272.862 440.202 271.962 440.658C271.062 441.114 270.002 441.342 268.783 441.342C267.655 441.342 266.687 441.108 265.878 440.641C265.069 440.163 264.391 439.502 263.844 438.659C263.297 437.816 262.853 436.83 262.511 435.702C262.181 434.574 261.924 433.361 261.742 432.062V431.447C261.924 430.148 262.181 428.935 262.511 427.807C262.853 426.679 263.297 425.693 263.844 424.85C264.391 424.007 265.063 423.352 265.861 422.885C266.67 422.406 267.632 422.167 268.749 422.167C269.979 422.167 271.045 422.401 271.945 422.868C272.856 423.335 273.608 423.99 274.201 424.833C274.793 425.665 275.232 426.656 275.517 427.807C275.813 428.946 275.961 430.194 275.961 431.549ZM270.629 431.908V431.549C270.629 430.843 270.578 430.176 270.475 429.55C270.384 428.923 270.219 428.371 269.979 427.892C269.752 427.402 269.427 427.021 269.005 426.747C268.595 426.462 268.065 426.32 267.416 426.32C266.778 426.32 266.237 426.428 265.792 426.645C265.348 426.861 264.989 427.169 264.716 427.567C264.442 427.955 264.243 428.428 264.118 428.986C263.992 429.544 263.924 430.165 263.913 430.849V432.66C263.924 433.572 264.044 434.369 264.271 435.053C264.499 435.736 264.87 436.266 265.382 436.642C265.895 437.007 266.584 437.189 267.45 437.189C268.111 437.189 268.646 437.064 269.057 436.813C269.478 436.551 269.797 436.186 270.014 435.719C270.242 435.252 270.401 434.694 270.492 434.044C270.583 433.395 270.629 432.683 270.629 431.908ZM287.514 441.342C286.044 441.342 284.728 441.108 283.566 440.641C282.404 440.174 281.418 439.53 280.609 438.71C279.812 437.878 279.202 436.921 278.781 435.839C278.359 434.757 278.148 433.6 278.148 432.37V431.72C278.148 430.342 278.342 429.071 278.729 427.909C279.117 426.747 279.681 425.739 280.421 424.884C281.173 424.018 282.096 423.352 283.19 422.885C284.284 422.406 285.531 422.167 286.933 422.167C288.243 422.167 289.411 422.383 290.436 422.816C291.461 423.238 292.327 423.847 293.034 424.645C293.74 425.431 294.276 426.382 294.64 427.499C295.016 428.604 295.204 429.846 295.204 431.225V433.412H280.302V429.977H289.975V429.567C289.975 428.917 289.855 428.348 289.616 427.858C289.388 427.368 289.046 426.992 288.59 426.73C288.146 426.457 287.582 426.32 286.898 426.32C286.249 426.32 285.708 426.457 285.275 426.73C284.842 427.003 284.494 427.391 284.232 427.892C283.982 428.382 283.799 428.957 283.686 429.618C283.572 430.268 283.515 430.968 283.515 431.72V432.37C283.515 433.087 283.611 433.743 283.805 434.335C283.999 434.927 284.284 435.434 284.66 435.856C285.036 436.278 285.491 436.608 286.027 436.847C286.562 437.086 287.172 437.206 287.855 437.206C288.699 437.206 289.502 437.047 290.265 436.728C291.028 436.397 291.689 435.884 292.248 435.189L294.743 438.043C294.367 438.59 293.837 439.12 293.153 439.633C292.481 440.134 291.672 440.544 290.727 440.863C289.781 441.182 288.71 441.342 287.514 441.342ZM307.594 436.591V428.661C307.594 428.103 307.509 427.624 307.338 427.226C307.167 426.827 306.899 426.514 306.535 426.286C306.17 426.058 305.697 425.944 305.116 425.944C304.626 425.944 304.199 426.029 303.834 426.2C303.481 426.371 303.208 426.616 303.014 426.935C302.832 427.254 302.741 427.647 302.741 428.114H297.409C297.409 427.283 297.597 426.508 297.973 425.79C298.349 425.072 298.884 424.44 299.579 423.893C300.285 423.346 301.129 422.925 302.108 422.628C303.088 422.321 304.188 422.167 305.407 422.167C306.854 422.167 308.141 422.412 309.269 422.902C310.408 423.38 311.308 424.104 311.969 425.072C312.63 426.029 312.96 427.237 312.96 428.695V436.437C312.96 437.554 313.023 438.431 313.148 439.069C313.285 439.695 313.479 440.242 313.729 440.709V441H308.346C308.096 440.465 307.908 439.804 307.782 439.018C307.657 438.22 307.594 437.411 307.594 436.591ZM308.261 429.721L308.295 432.66H305.646C305.054 432.66 304.541 432.734 304.108 432.882C303.686 433.03 303.345 433.236 303.083 433.498C302.82 433.748 302.627 434.044 302.501 434.386C302.388 434.717 302.331 435.081 302.331 435.48C302.331 435.856 302.422 436.198 302.604 436.505C302.786 436.802 303.037 437.035 303.356 437.206C303.675 437.377 304.045 437.462 304.467 437.462C305.162 437.462 305.754 437.326 306.244 437.052C306.745 436.779 307.133 436.448 307.406 436.061C307.68 435.662 307.816 435.292 307.816 434.95L309.098 437.172C308.893 437.628 308.642 438.1 308.346 438.59C308.05 439.069 307.674 439.519 307.218 439.94C306.763 440.351 306.21 440.687 305.561 440.949C304.923 441.211 304.153 441.342 303.253 441.342C302.091 441.342 301.037 441.108 300.092 440.641C299.146 440.163 298.389 439.507 297.819 438.676C297.261 437.844 296.981 436.887 296.981 435.805C296.981 434.836 297.158 433.976 297.511 433.224C297.864 432.472 298.394 431.834 299.101 431.31C299.818 430.786 300.718 430.393 301.801 430.131C302.883 429.857 304.148 429.721 305.595 429.721H308.261ZM321.693 426.457V441H316.344V422.509H321.369L321.693 426.457ZM320.993 431.105L319.66 431.139C319.66 429.749 319.831 428.502 320.172 427.396C320.514 426.291 320.998 425.351 321.625 424.577C322.263 423.791 323.021 423.192 323.898 422.782C324.787 422.372 325.766 422.167 326.837 422.167C327.703 422.167 328.495 422.292 329.213 422.543C329.931 422.794 330.546 423.198 331.059 423.756C331.583 424.303 331.981 425.032 332.255 425.944C332.528 426.844 332.665 427.955 332.665 429.276V441H327.299V429.259C327.299 428.485 327.191 427.886 326.974 427.465C326.758 427.043 326.439 426.747 326.017 426.576C325.607 426.405 325.106 426.32 324.513 426.32C323.887 426.32 323.351 426.445 322.907 426.696C322.462 426.935 322.098 427.271 321.813 427.704C321.528 428.137 321.317 428.644 321.181 429.225C321.055 429.806 320.993 430.433 320.993 431.105Z" fill="black"/>
</svg>
